<svg width="983" height="329" viewBox="0 0 983 329" fill="none" xmlns="http://www.w3.org/2000/svg">
<g filter="url(#filter0_b)">
<path d="M19.812 233V57.74H85.344C135.805 57.74 161.036 82.9707 161.036 133.432V157.308C161.036 207.769 135.805 233 85.344 233H19.812ZM64.008 193.122H87.884C107.188 193.122 116.84 183.385 116.84 163.912V126.828C116.84 107.355 107.188 97.618 87.884 97.618H64.008V193.122ZM180.183 224.872L229.713 57.74H295.753L345.283 224.872L339.949 233H302.865L294.229 201.758H231.237L222.601 233H185.517L180.183 224.872ZM242.921 161.88H282.545L264.257 97.618H261.209L242.921 161.88ZM341.166 65.868L346.246 57.74H384.092L417.366 125.05L450.64 57.74H488.486L493.566 65.868L439.464 172.548V233H395.268V172.548L341.166 65.868ZM517.642 233V57.74H604.002C633.805 57.74 648.706 72.6413 648.706 102.444V136.988C648.706 166.621 633.805 181.438 604.002 181.438H561.838V233H517.642ZM561.838 141.56H601.716C603.579 141.56 604.51 140.629 604.51 138.766V100.412C604.51 98.5493 603.579 97.618 601.716 97.618H561.838V141.56ZM654.945 224.872L704.475 57.74H770.515L820.045 224.872L814.711 233H777.627L768.991 201.758H705.999L697.363 233H660.279L654.945 224.872ZM717.683 161.88H757.307L739.019 97.618H735.971L717.683 161.88ZM815.927 65.868L821.007 57.74H858.853L892.127 125.05L925.401 57.74H963.247L968.327 65.868L914.225 172.548V233H870.029V172.548L815.927 65.868Z" fill="url(#paint0_linear)"/>
<path d="M19.812 233H18.812V234H19.812V233ZM19.812 57.74V56.74H18.812V57.74H19.812ZM64.008 193.122H63.008V194.122H64.008V193.122ZM64.008 97.618V96.618H63.008V97.618H64.008ZM20.812 233V57.74H18.812V233H20.812ZM19.812 58.74H85.344V56.74H19.812V58.74ZM85.344 58.74C110.421 58.74 129.044 65.0084 141.406 77.3701C153.768 89.7318 160.036 108.355 160.036 133.432H162.036C162.036 108.047 155.689 88.8249 142.82 75.9559C129.951 63.0869 110.729 56.74 85.344 56.74V58.74ZM160.036 133.432V157.308H162.036V133.432H160.036ZM160.036 157.308C160.036 182.385 153.768 201.008 141.406 213.37C129.044 225.732 110.421 232 85.344 232V234C110.729 234 129.951 227.653 142.82 214.784C155.689 201.915 162.036 182.693 162.036 157.308H160.036ZM85.344 232H19.812V234H85.344V232ZM64.008 194.122H87.884V192.122H64.008V194.122ZM87.884 194.122C97.6924 194.122 105.232 191.647 110.311 186.524C115.389 181.401 117.84 173.801 117.84 163.912H115.84C115.84 173.497 113.465 180.501 108.891 185.115C104.318 189.728 97.3796 192.122 87.884 192.122V194.122ZM117.84 163.912V126.828H115.84V163.912H117.84ZM117.84 126.828C117.84 116.939 115.389 109.339 110.311 104.216C105.232 99.0926 97.6924 96.618 87.884 96.618V98.618C97.3796 98.618 104.318 101.012 108.891 105.625C113.465 110.239 115.84 117.243 115.84 126.828H117.84ZM87.884 96.618H64.008V98.618H87.884V96.618ZM63.008 97.618V193.122H65.008V97.618H63.008ZM180.183 224.872L179.224 224.588L179.093 225.033L179.347 225.421L180.183 224.872ZM229.713 57.74V56.74H228.967L228.754 57.4558L229.713 57.74ZM295.753 57.74L296.712 57.4558L296.5 56.74H295.753V57.74ZM345.283 224.872L346.119 225.421L346.374 225.033L346.242 224.588L345.283 224.872ZM339.949 233V234H340.489L340.785 233.549L339.949 233ZM302.865 233L301.901 233.266L302.104 234H302.865V233ZM294.229 201.758L295.193 201.492L294.99 200.758H294.229V201.758ZM231.237 201.758V200.758H230.476L230.273 201.492L231.237 201.758ZM222.601 233V234H223.362L223.565 233.266L222.601 233ZM185.517 233L184.681 233.549L184.977 234H185.517V233ZM242.921 161.88L241.959 161.606L241.597 162.88H242.921V161.88ZM282.545 161.88V162.88H283.87L283.507 161.606L282.545 161.88ZM264.257 97.618L265.219 97.3443L265.012 96.618H264.257V97.618ZM261.209 97.618V96.618H260.454L260.247 97.3443L261.209 97.618ZM181.142 225.156L230.672 58.0241L228.754 57.4558L179.224 224.588L181.142 225.156ZM229.713 58.74H295.753V56.74H229.713V58.74ZM294.794 58.0241L344.324 225.156L346.242 224.588L296.712 57.4558L294.794 58.0241ZM344.447 224.323L339.113 232.451L340.785 233.549L346.119 225.421L344.447 224.323ZM339.949 232H302.865V234H339.949V232ZM303.829 232.734L295.193 201.492L293.265 202.024L301.901 233.266L303.829 232.734ZM294.229 200.758H231.237V202.758H294.229V200.758ZM230.273 201.492L221.637 232.734L223.565 233.266L232.201 202.024L230.273 201.492ZM222.601 232H185.517V234H222.601V232ZM186.353 232.451L181.019 224.323L179.347 225.421L184.681 233.549L186.353 232.451ZM242.921 162.88H282.545V160.88H242.921V162.88ZM283.507 161.606L265.219 97.3443L263.295 97.8917L281.583 162.154L283.507 161.606ZM264.257 96.618H261.209V98.618H264.257V96.618ZM260.247 97.3443L241.959 161.606L243.883 162.154L262.171 97.8917L260.247 97.3443ZM341.166 65.868L340.318 65.338L340.018 65.8168L340.274 66.3203L341.166 65.868ZM346.246 57.74V56.74H345.691L345.398 57.21L346.246 57.74ZM384.092 57.74L384.988 57.2968L384.713 56.74H384.092V57.74ZM417.366 125.05L416.469 125.493L417.366 127.307L418.262 125.493L417.366 125.05ZM450.64 57.74V56.74H450.018L449.743 57.2968L450.64 57.74ZM488.486 57.74L489.334 57.21L489.04 56.74H488.486V57.74ZM493.566 65.868L494.458 66.3203L494.713 65.8168L494.414 65.338L493.566 65.868ZM439.464 172.548L438.572 172.096L438.464 172.309V172.548H439.464ZM439.464 233V234H440.464V233H439.464ZM395.268 233H394.268V234H395.268V233ZM395.268 172.548H396.268V172.309L396.16 172.096L395.268 172.548ZM342.014 66.398L347.094 58.27L345.398 57.21L340.318 65.338L342.014 66.398ZM346.246 58.74H384.092V56.74H346.246V58.74ZM383.195 58.1831L416.469 125.493L418.262 124.607L384.988 57.2968L383.195 58.1831ZM418.262 125.493L451.536 58.1831L449.743 57.2968L416.469 124.607L418.262 125.493ZM450.64 58.74H488.486V56.74H450.64V58.74ZM487.638 58.27L492.718 66.398L494.414 65.338L489.334 57.21L487.638 58.27ZM492.674 65.4157L438.572 172.096L440.356 173L494.458 66.3203L492.674 65.4157ZM438.464 172.548V233H440.464V172.548H438.464ZM439.464 232H395.268V234H439.464V232ZM396.268 233V172.548H394.268V233H396.268ZM396.16 172.096L342.058 65.4157L340.274 66.3203L394.376 173L396.16 172.096ZM517.642 233H516.642V234H517.642V233ZM517.642 57.74V56.74H516.642V57.74H517.642ZM561.838 181.438V180.438H560.838V181.438H561.838ZM561.838 233V234H562.838V233H561.838ZM561.838 141.56H560.838V142.56H561.838V141.56ZM561.838 97.618V96.618H560.838V97.618H561.838ZM518.642 233V57.74H516.642V233H518.642ZM517.642 58.74H604.002V56.74H517.642V58.74ZM604.002 58.74C618.749 58.74 629.626 62.4261 636.823 69.6231C644.02 76.8201 647.706 87.6968 647.706 102.444H649.706C649.706 87.3885 645.942 75.9132 638.237 68.2089C630.533 60.5045 619.058 56.74 604.002 56.74V58.74ZM647.706 102.444V136.988H649.706V102.444H647.706ZM647.706 136.988C647.706 151.649 644.021 162.462 636.825 169.616C629.628 176.772 618.751 180.438 604.002 180.438V182.438C619.056 182.438 630.531 178.695 638.235 171.035C645.941 163.373 649.706 151.96 649.706 136.988H647.706ZM604.002 180.438H561.838V182.438H604.002V180.438ZM560.838 181.438V233H562.838V181.438H560.838ZM561.838 232H517.642V234H561.838V232ZM561.838 142.56H601.716V140.56H561.838V142.56ZM601.716 142.56C602.802 142.56 603.799 142.288 604.519 141.569C605.238 140.849 605.51 139.851 605.51 138.766H603.51C603.51 139.543 603.316 139.942 603.104 140.154C602.893 140.366 602.493 140.56 601.716 140.56V142.56ZM605.51 138.766V100.412H603.51V138.766H605.51ZM605.51 100.412C605.51 99.3265 605.238 98.3287 604.519 97.6094C603.799 96.89 602.802 96.618 601.716 96.618V98.618C602.493 98.618 602.893 98.8116 603.104 99.0236C603.316 99.2356 603.51 99.6348 603.51 100.412H605.51ZM601.716 96.618H561.838V98.618H601.716V96.618ZM560.838 97.618V141.56H562.838V97.618H560.838ZM654.945 224.872L653.986 224.588L653.854 225.033L654.109 225.421L654.945 224.872ZM704.475 57.74V56.74H703.728L703.516 57.4558L704.475 57.74ZM770.515 57.74L771.474 57.4558L771.262 56.74H770.515V57.74ZM820.045 224.872L820.881 225.421L821.136 225.033L821.004 224.588L820.045 224.872ZM814.711 233V234H815.251L815.547 233.549L814.711 233ZM777.627 233L776.663 233.266L776.866 234H777.627V233ZM768.991 201.758L769.955 201.492L769.752 200.758H768.991V201.758ZM705.999 201.758V200.758H705.238L705.035 201.492L705.999 201.758ZM697.363 233V234H698.124L698.327 233.266L697.363 233ZM660.279 233L659.443 233.549L659.739 234H660.279V233ZM717.683 161.88L716.721 161.606L716.359 162.88H717.683V161.88ZM757.307 161.88V162.88H758.631L758.269 161.606L757.307 161.88ZM739.019 97.618L739.981 97.3443L739.774 96.618H739.019V97.618ZM735.971 97.618V96.618H735.216L735.009 97.3443L735.971 97.618ZM655.904 225.156L705.434 58.0241L703.516 57.4558L653.986 224.588L655.904 225.156ZM704.475 58.74H770.515V56.74H704.475V58.74ZM769.556 58.0241L819.086 225.156L821.004 224.588L771.474 57.4558L769.556 58.0241ZM819.209 224.323L813.875 232.451L815.547 233.549L820.881 225.421L819.209 224.323ZM814.711 232H777.627V234H814.711V232ZM778.591 232.734L769.955 201.492L768.027 202.024L776.663 233.266L778.591 232.734ZM768.991 200.758H705.999V202.758H768.991V200.758ZM705.035 201.492L696.399 232.734L698.327 233.266L706.963 202.024L705.035 201.492ZM697.363 232H660.279V234H697.363V232ZM661.115 232.451L655.781 224.323L654.109 225.421L659.443 233.549L661.115 232.451ZM717.683 162.88H757.307V160.88H717.683V162.88ZM758.269 161.606L739.981 97.3443L738.057 97.8917L756.345 162.154L758.269 161.606ZM739.019 96.618H735.971V98.618H739.019V96.618ZM735.009 97.3443L716.721 161.606L718.645 162.154L736.933 97.8917L735.009 97.3443ZM815.927 65.868L815.079 65.338L814.78 65.8168L815.036 66.3203L815.927 65.868ZM821.007 57.74V56.74H820.453L820.159 57.21L821.007 57.74ZM858.853 57.74L859.75 57.2968L859.475 56.74H858.853V57.74ZM892.127 125.05L891.231 125.493L892.127 127.307L893.024 125.493L892.127 125.05ZM925.401 57.74V56.74H924.78L924.505 57.2968L925.401 57.74ZM963.247 57.74L964.095 57.21L963.802 56.74H963.247V57.74ZM968.327 65.868L969.219 66.3203L969.475 65.8168L969.175 65.338L968.327 65.868ZM914.225 172.548L913.333 172.096L913.225 172.309V172.548H914.225ZM914.225 233V234H915.225V233H914.225ZM870.029 233H869.029V234H870.029V233ZM870.029 172.548H871.029V172.309L870.921 172.096L870.029 172.548ZM816.775 66.398L821.855 58.27L820.159 57.21L815.079 65.338L816.775 66.398ZM821.007 58.74H858.853V56.74H821.007V58.74ZM857.957 58.1831L891.231 125.493L893.024 124.607L859.75 57.2968L857.957 58.1831ZM893.024 125.493L926.298 58.1831L924.505 57.2968L891.231 124.607L893.024 125.493ZM925.401 58.74H963.247V56.74H925.401V58.74ZM962.399 58.27L967.479 66.398L969.175 65.338L964.095 57.21L962.399 58.27ZM967.436 65.4157L913.333 172.096L915.117 173L969.219 66.3203L967.436 65.4157ZM913.225 172.548V233H915.225V172.548H913.225ZM914.225 232H870.029V234H914.225V232ZM871.029 233V172.548H869.029V233H871.029ZM870.921 172.096L816.819 65.4157L815.036 66.3203L869.138 173L870.921 172.096Z" fill="url(#paint1_radial)"/>
</g>
<g filter="url(#filter1_b)">
<path d="M29.812 244V68.74H95.344C145.805 68.74 171.036 93.9707 171.036 144.432V168.308C171.036 218.769 145.805 244 95.344 244H29.812ZM74.008 204.122H97.884C117.188 204.122 126.84 194.385 126.84 174.912V137.828C126.84 118.355 117.188 108.618 97.884 108.618H74.008V204.122ZM190.183 235.872L239.713 68.74H305.753L355.283 235.872L349.949 244H312.865L304.229 212.758H241.237L232.601 244H195.517L190.183 235.872ZM252.921 172.88H292.545L274.257 108.618H271.209L252.921 172.88ZM351.166 76.868L356.246 68.74H394.092L427.366 136.05L460.64 68.74H498.486L503.566 76.868L449.464 183.548V244H405.268V183.548L351.166 76.868ZM527.642 244V68.74H614.002C643.805 68.74 658.706 83.6413 658.706 113.444V147.988C658.706 177.621 643.805 192.438 614.002 192.438H571.838V244H527.642ZM571.838 152.56H611.716C613.579 152.56 614.51 151.629 614.51 149.766V111.412C614.51 109.549 613.579 108.618 611.716 108.618H571.838V152.56ZM664.945 235.872L714.475 68.74H780.515L830.045 235.872L824.711 244H787.627L778.991 212.758H715.999L707.363 244H670.279L664.945 235.872ZM727.683 172.88H767.307L749.019 108.618H745.971L727.683 172.88ZM825.927 76.868L831.007 68.74H868.853L902.127 136.05L935.401 68.74H973.247L978.327 76.868L924.225 183.548V244H880.029V183.548L825.927 76.868Z" fill="url(#paint2_linear)"/>
<path d="M29.812 244H28.812V245H29.812V244ZM29.812 68.74V67.74H28.812V68.74H29.812ZM74.008 204.122H73.008V205.122H74.008V204.122ZM74.008 108.618V107.618H73.008V108.618H74.008ZM30.812 244V68.74H28.812V244H30.812ZM29.812 69.74H95.344V67.74H29.812V69.74ZM95.344 69.74C120.421 69.74 139.044 76.0084 151.406 88.3701C163.768 100.732 170.036 119.355 170.036 144.432H172.036C172.036 119.047 165.689 99.8249 152.82 86.9559C139.951 74.0869 120.729 67.74 95.344 67.74V69.74ZM170.036 144.432V168.308H172.036V144.432H170.036ZM170.036 168.308C170.036 193.385 163.768 212.008 151.406 224.37C139.044 236.732 120.421 243 95.344 243V245C120.729 245 139.951 238.653 152.82 225.784C165.689 212.915 172.036 193.693 172.036 168.308H170.036ZM95.344 243H29.812V245H95.344V243ZM74.008 205.122H97.884V203.122H74.008V205.122ZM97.884 205.122C107.692 205.122 115.232 202.647 120.311 197.524C125.389 192.401 127.84 184.801 127.84 174.912H125.84C125.84 184.497 123.465 191.501 118.891 196.115C114.318 200.728 107.38 203.122 97.884 203.122V205.122ZM127.84 174.912V137.828H125.84V174.912H127.84ZM127.84 137.828C127.84 127.939 125.389 120.339 120.311 115.216C115.232 110.093 107.692 107.618 97.884 107.618V109.618C107.38 109.618 114.318 112.012 118.891 116.625C123.465 121.239 125.84 128.243 125.84 137.828H127.84ZM97.884 107.618H74.008V109.618H97.884V107.618ZM73.008 108.618V204.122H75.008V108.618H73.008ZM190.183 235.872L189.224 235.588L189.093 236.033L189.347 236.421L190.183 235.872ZM239.713 68.74V67.74H238.967L238.754 68.4558L239.713 68.74ZM305.753 68.74L306.712 68.4558L306.5 67.74H305.753V68.74ZM355.283 235.872L356.119 236.421L356.374 236.033L356.242 235.588L355.283 235.872ZM349.949 244V245H350.489L350.785 244.549L349.949 244ZM312.865 244L311.901 244.266L312.104 245H312.865V244ZM304.229 212.758L305.193 212.492L304.99 211.758H304.229V212.758ZM241.237 212.758V211.758H240.476L240.273 212.492L241.237 212.758ZM232.601 244V245H233.362L233.565 244.266L232.601 244ZM195.517 244L194.681 244.549L194.977 245H195.517V244ZM252.921 172.88L251.959 172.606L251.597 173.88H252.921V172.88ZM292.545 172.88V173.88H293.87L293.507 172.606L292.545 172.88ZM274.257 108.618L275.219 108.344L275.012 107.618H274.257V108.618ZM271.209 108.618V107.618H270.454L270.247 108.344L271.209 108.618ZM191.142 236.156L240.672 69.0241L238.754 68.4558L189.224 235.588L191.142 236.156ZM239.713 69.74H305.753V67.74H239.713V69.74ZM304.794 69.0241L354.324 236.156L356.242 235.588L306.712 68.4558L304.794 69.0241ZM354.447 235.323L349.113 243.451L350.785 244.549L356.119 236.421L354.447 235.323ZM349.949 243H312.865V245H349.949V243ZM313.829 243.734L305.193 212.492L303.265 213.024L311.901 244.266L313.829 243.734ZM304.229 211.758H241.237V213.758H304.229V211.758ZM240.273 212.492L231.637 243.734L233.565 244.266L242.201 213.024L240.273 212.492ZM232.601 243H195.517V245H232.601V243ZM196.353 243.451L191.019 235.323L189.347 236.421L194.681 244.549L196.353 243.451ZM252.921 173.88H292.545V171.88H252.921V173.88ZM293.507 172.606L275.219 108.344L273.295 108.892L291.583 173.154L293.507 172.606ZM274.257 107.618H271.209V109.618H274.257V107.618ZM270.247 108.344L251.959 172.606L253.883 173.154L272.171 108.892L270.247 108.344ZM351.166 76.868L350.318 76.338L350.018 76.8168L350.274 77.3203L351.166 76.868ZM356.246 68.74V67.74H355.691L355.398 68.21L356.246 68.74ZM394.092 68.74L394.988 68.2968L394.713 67.74H394.092V68.74ZM427.366 136.05L426.469 136.493L427.366 138.307L428.262 136.493L427.366 136.05ZM460.64 68.74V67.74H460.018L459.743 68.2968L460.64 68.74ZM498.486 68.74L499.334 68.21L499.04 67.74H498.486V68.74ZM503.566 76.868L504.458 77.3203L504.713 76.8168L504.414 76.338L503.566 76.868ZM449.464 183.548L448.572 183.096L448.464 183.309V183.548H449.464ZM449.464 244V245H450.464V244H449.464ZM405.268 244H404.268V245H405.268V244ZM405.268 183.548H406.268V183.309L406.16 183.096L405.268 183.548ZM352.014 77.398L357.094 69.27L355.398 68.21L350.318 76.338L352.014 77.398ZM356.246 69.74H394.092V67.74H356.246V69.74ZM393.195 69.1831L426.469 136.493L428.262 135.607L394.988 68.2968L393.195 69.1831ZM428.262 136.493L461.536 69.1831L459.743 68.2968L426.469 135.607L428.262 136.493ZM460.64 69.74H498.486V67.74H460.64V69.74ZM497.638 69.27L502.718 77.398L504.414 76.338L499.334 68.21L497.638 69.27ZM502.674 76.4157L448.572 183.096L450.356 184L504.458 77.3203L502.674 76.4157ZM448.464 183.548V244H450.464V183.548H448.464ZM449.464 243H405.268V245H449.464V243ZM406.268 244V183.548H404.268V244H406.268ZM406.16 183.096L352.058 76.4157L350.274 77.3203L404.376 184L406.16 183.096ZM527.642 244H526.642V245H527.642V244ZM527.642 68.74V67.74H526.642V68.74H527.642ZM571.838 192.438V191.438H570.838V192.438H571.838ZM571.838 244V245H572.838V244H571.838ZM571.838 152.56H570.838V153.56H571.838V152.56ZM571.838 108.618V107.618H570.838V108.618H571.838ZM528.642 244V68.74H526.642V244H528.642ZM527.642 69.74H614.002V67.74H527.642V69.74ZM614.002 69.74C628.749 69.74 639.626 73.4261 646.823 80.6231C654.02 87.8201 657.706 98.6968 657.706 113.444H659.706C659.706 98.3885 655.942 86.9132 648.237 79.2089C640.533 71.5045 629.058 67.74 614.002 67.74V69.74ZM657.706 113.444V147.988H659.706V113.444H657.706ZM657.706 147.988C657.706 162.649 654.021 173.462 646.825 180.616C639.628 187.772 628.751 191.438 614.002 191.438V193.438C629.056 193.438 640.531 189.695 648.235 182.035C655.941 174.373 659.706 162.96 659.706 147.988H657.706ZM614.002 191.438H571.838V193.438H614.002V191.438ZM570.838 192.438V244H572.838V192.438H570.838ZM571.838 243H527.642V245H571.838V243ZM571.838 153.56H611.716V151.56H571.838V153.56ZM611.716 153.56C612.802 153.56 613.799 153.288 614.519 152.569C615.238 151.849 615.51 150.851 615.51 149.766H613.51C613.51 150.543 613.316 150.942 613.104 151.154C612.893 151.366 612.493 151.56 611.716 151.56V153.56ZM615.51 149.766V111.412H613.51V149.766H615.51ZM615.51 111.412C615.51 110.327 615.238 109.329 614.519 108.609C613.799 107.89 612.802 107.618 611.716 107.618V109.618C612.493 109.618 612.893 109.812 613.104 110.024C613.316 110.236 613.51 110.635 613.51 111.412H615.51ZM611.716 107.618H571.838V109.618H611.716V107.618ZM570.838 108.618V152.56H572.838V108.618H570.838ZM664.945 235.872L663.986 235.588L663.854 236.033L664.109 236.421L664.945 235.872ZM714.475 68.74V67.74H713.728L713.516 68.4558L714.475 68.74ZM780.515 68.74L781.474 68.4558L781.262 67.74H780.515V68.74ZM830.045 235.872L830.881 236.421L831.136 236.033L831.004 235.588L830.045 235.872ZM824.711 244V245H825.251L825.547 244.549L824.711 244ZM787.627 244L786.663 244.266L786.866 245H787.627V244ZM778.991 212.758L779.955 212.492L779.752 211.758H778.991V212.758ZM715.999 212.758V211.758H715.238L715.035 212.492L715.999 212.758ZM707.363 244V245H708.124L708.327 244.266L707.363 244ZM670.279 244L669.443 244.549L669.739 245H670.279V244ZM727.683 172.88L726.721 172.606L726.359 173.88H727.683V172.88ZM767.307 172.88V173.88H768.631L768.269 172.606L767.307 172.88ZM749.019 108.618L749.981 108.344L749.774 107.618H749.019V108.618ZM745.971 108.618V107.618H745.216L745.009 108.344L745.971 108.618ZM665.904 236.156L715.434 69.0241L713.516 68.4558L663.986 235.588L665.904 236.156ZM714.475 69.74H780.515V67.74H714.475V69.74ZM779.556 69.0241L829.086 236.156L831.004 235.588L781.474 68.4558L779.556 69.0241ZM829.209 235.323L823.875 243.451L825.547 244.549L830.881 236.421L829.209 235.323ZM824.711 243H787.627V245H824.711V243ZM788.591 243.734L779.955 212.492L778.027 213.024L786.663 244.266L788.591 243.734ZM778.991 211.758H715.999V213.758H778.991V211.758ZM715.035 212.492L706.399 243.734L708.327 244.266L716.963 213.024L715.035 212.492ZM707.363 243H670.279V245H707.363V243ZM671.115 243.451L665.781 235.323L664.109 236.421L669.443 244.549L671.115 243.451ZM727.683 173.88H767.307V171.88H727.683V173.88ZM768.269 172.606L749.981 108.344L748.057 108.892L766.345 173.154L768.269 172.606ZM749.019 107.618H745.971V109.618H749.019V107.618ZM745.009 108.344L726.721 172.606L728.645 173.154L746.933 108.892L745.009 108.344ZM825.927 76.868L825.079 76.338L824.78 76.8168L825.036 77.3203L825.927 76.868ZM831.007 68.74V67.74H830.453L830.159 68.21L831.007 68.74ZM868.853 68.74L869.75 68.2968L869.475 67.74H868.853V68.74ZM902.127 136.05L901.231 136.493L902.127 138.307L903.024 136.493L902.127 136.05ZM935.401 68.74V67.74H934.78L934.505 68.2968L935.401 68.74ZM973.247 68.74L974.095 68.21L973.802 67.74H973.247V68.74ZM978.327 76.868L979.219 77.3203L979.475 76.8168L979.175 76.338L978.327 76.868ZM924.225 183.548L923.333 183.096L923.225 183.309V183.548H924.225ZM924.225 244V245H925.225V244H924.225ZM880.029 244H879.029V245H880.029V244ZM880.029 183.548H881.029V183.309L880.921 183.096L880.029 183.548ZM826.775 77.398L831.855 69.27L830.159 68.21L825.079 76.338L826.775 77.398ZM831.007 69.74H868.853V67.74H831.007V69.74ZM867.957 69.1831L901.231 136.493L903.024 135.607L869.75 68.2968L867.957 69.1831ZM903.024 136.493L936.298 69.1831L934.505 68.2968L901.231 135.607L903.024 136.493ZM935.401 69.74H973.247V67.74H935.401V69.74ZM972.399 69.27L977.479 77.398L979.175 76.338L974.095 68.21L972.399 69.27ZM977.436 76.4157L923.333 183.096L925.117 184L979.219 77.3203L977.436 76.4157ZM923.225 183.548V244H925.225V183.548H923.225ZM924.225 243H880.029V245H924.225V243ZM881.029 244V183.548H879.029V244H881.029ZM880.921 183.096L826.819 76.4157L825.036 77.3203L879.138 184L880.921 183.096Z" fill="url(#paint3_radial)"/>
</g>
<defs>
<filter id="filter0_b" x="-5.18799" y="32.74" width="998.663" height="225.26" filterUnits="userSpaceOnUse" color-interpolation-filters="sRGB">
<feFlood flood-opacity="0" result="BackgroundImageFix"/>
<feGaussianBlur in="BackgroundImage" stdDeviation="12"/>
<feComposite in2="SourceAlpha" operator="in" result="effect1_backgroundBlur"/>
<feBlend mode="normal" in="SourceGraphic" in2="effect1_backgroundBlur" result="shape"/>
</filter>
<filter id="filter1_b" x="4.81201" y="43.74" width="998.663" height="225.26" filterUnits="userSpaceOnUse" color-interpolation-filters="sRGB">
<feFlood flood-opacity="0" result="BackgroundImageFix"/>
<feGaussianBlur in="BackgroundImage" stdDeviation="12"/>
<feComposite in2="SourceAlpha" operator="in" result="effect1_backgroundBlur"/>
<feBlend mode="normal" in="SourceGraphic" in2="effect1_backgroundBlur" result="shape"/>
</filter>
<linearGradient id="paint0_linear" x1="154.886" y1="37.0474" x2="306.151" y2="508.524" gradientUnits="userSpaceOnUse">
<stop stop-color="white" stop-opacity="0.25"/>
<stop offset="1" stop-color="white" stop-opacity="0"/>
</linearGradient>
<radialGradient id="paint1_radial" cx="0" cy="0" r="1" gradientUnits="userSpaceOnUse" gradientTransform="rotate(18.0986) scale(1023.65 420.053)">
<stop stop-color="white" stop-opacity="0.4"/>
<stop offset="1" stop-color="white" stop-opacity="0"/>
</radialGradient>
<linearGradient id="paint2_linear" x1="164.886" y1="48.0474" x2="316.151" y2="519.524" gradientUnits="userSpaceOnUse">
<stop stop-color="white" stop-opacity="0.25"/>
<stop offset="1" stop-color="white" stop-opacity="0"/>
</linearGradient>
<radialGradient id="paint3_radial" cx="0" cy="0" r="1" gradientUnits="userSpaceOnUse" gradientTransform="translate(10 11) rotate(18.0986) scale(1023.65 420.053)">
<stop stop-color="white" stop-opacity="0.4"/>
<stop offset="1" stop-color="white" stop-opacity="0"/>
</radialGradient>
</defs>
</svg>
