<svg width="24" height="24" viewBox="0 0 24 24" fill="none" xmlns="http://www.w3.org/2000/svg">
<path d="M22.7101 21.2901L10.5901 9.17006L2.71005 1.29006C2.32005 0.900059 1.69005 0.900059 1.30005 1.29006C0.910054 1.68006 0.910054 2.31006 1.30005 2.70006L4.80005 6.22006C3.36005 7.62006 2.11005 9.40006 1.09005 11.5801C0.960054 11.8501 0.960054 12.1601 1.09005 12.4301C3.24005 17.0101 6.41005 19.9801 10.0301 20.7901C10.6801 20.9401 11.3301 21.0101 11.9801 21.0101C13.9501 21.0101 15.9001 20.3601 17.6701 19.1001L21.2901 22.7201C21.6801 23.1101 22.3101 23.1101 22.7001 22.7201C23.1001 22.3201 23.1001 21.6801 22.7101 21.2901ZM10.0701 11.4901L12.5101 13.9301C12.3501 13.9701 12.1801 14.0001 12.0001 14.0001C10.9001 14.0001 10.0001 13.1001 10.0001 12.0001C10.0001 11.8201 10.0301 11.6501 10.0701 11.4901ZM10.4701 18.8301C7.58005 18.1801 4.98005 15.7601 3.11005 12.0001C3.99005 10.2201 5.04005 8.77006 6.21005 7.63006L8.56005 9.98006C8.21005 10.5901 8.00005 11.2801 8.00005 12.0001C8.00005 14.2101 9.79005 16.0001 12.0001 16.0001C12.7201 16.0001 13.4201 15.8001 14.0301 15.4401L16.2401 17.6501C14.4101 18.8601 12.4401 19.2701 10.4701 18.8301ZM19.9501 15.5001C19.4901 15.1901 19.3701 14.5701 19.6801 14.1101C20.1101 13.4601 20.5201 12.7501 20.9001 12.0001C18.3201 6.81006 14.3001 4.22006 10.3101 5.21006C9.76005 5.35006 9.22005 5.02006 9.09005 4.48006C8.96005 3.95006 9.28005 3.40006 9.82005 3.27006C14.9001 2.01006 19.9101 5.19006 22.9101 11.5801C23.0401 11.8501 23.0401 12.1601 22.9101 12.4301C22.4401 13.4401 21.9101 14.3801 21.3401 15.2301C21.0301 15.6801 20.4101 15.8101 19.9501 15.5001Z" fill="white"/>
</svg>
