<svg width="37" height="37" viewBox="0 0 37 37" fill="none" xmlns="http://www.w3.org/2000/svg">
<ellipse cx="18.0557" cy="26" rx="6.5" ry="6" fill="url(#paint0_linear_69:17898)"/>
<g filter="url(#filter0_bi_69:17898)">
<mask id="path-3-inside-1_69:17898" fill="white">
<path fill-rule="evenodd" clip-rule="evenodd" d="M17.7777 14.7779C21.0301 14.7779 23.6667 12.1413 23.6667 8.88894C23.6667 5.63657 21.0301 3 17.7777 3C14.5254 3 11.8888 5.63657 11.8888 8.88894C11.8888 12.1413 14.5254 14.7779 17.7777 14.7779ZM29.5558 25.0834C29.5558 28.721 23.0125 29.5001 17.7779 29.5001C12.5433 29.5001 6 28.721 6 25.0834C6 21.4459 11.2731 16.25 17.7779 16.25C24.2826 16.25 29.5558 21.4459 29.5558 25.0834Z"/>
</mask>
<path fill-rule="evenodd" clip-rule="evenodd" d="M17.7777 14.7779C21.0301 14.7779 23.6667 12.1413 23.6667 8.88894C23.6667 5.63657 21.0301 3 17.7777 3C14.5254 3 11.8888 5.63657 11.8888 8.88894C11.8888 12.1413 14.5254 14.7779 17.7777 14.7779ZM29.5558 25.0834C29.5558 28.721 23.0125 29.5001 17.7779 29.5001C12.5433 29.5001 6 28.721 6 25.0834C6 21.4459 11.2731 16.25 17.7779 16.25C24.2826 16.25 29.5558 21.4459 29.5558 25.0834Z" fill="#F1F1F1" fill-opacity="0.1"/>
<path fill-rule="evenodd" clip-rule="evenodd" d="M17.7777 14.7779C21.0301 14.7779 23.6667 12.1413 23.6667 8.88894C23.6667 5.63657 21.0301 3 17.7777 3C14.5254 3 11.8888 5.63657 11.8888 8.88894C11.8888 12.1413 14.5254 14.7779 17.7777 14.7779ZM29.5558 25.0834C29.5558 28.721 23.0125 29.5001 17.7779 29.5001C12.5433 29.5001 6 28.721 6 25.0834C6 21.4459 11.2731 16.25 17.7779 16.25C24.2826 16.25 29.5558 21.4459 29.5558 25.0834Z" fill="url(#paint1_linear_69:17898)" fill-opacity="0.2"/>
<path d="M23.4667 8.88894C23.4667 12.0309 20.9197 14.5779 17.7777 14.5779V14.9779C21.1406 14.9779 23.8667 12.2518 23.8667 8.88894H23.4667ZM17.7777 3.2C20.9197 3.2 23.4667 5.74703 23.4667 8.88894H23.8667C23.8667 5.52611 21.1406 2.8 17.7777 2.8V3.2ZM12.0888 8.88894C12.0888 5.74703 14.6358 3.2 17.7777 3.2V2.8C14.4149 2.8 11.6888 5.52611 11.6888 8.88894H12.0888ZM17.7777 14.5779C14.6358 14.5779 12.0888 12.0309 12.0888 8.88894H11.6888C11.6888 12.2518 14.4149 14.9779 17.7777 14.9779V14.5779ZM17.7779 29.7001C20.4005 29.7001 23.3672 29.5054 25.6844 28.8483C26.8424 28.5198 27.8544 28.0716 28.5803 27.4612C29.312 26.846 29.7558 26.0624 29.7558 25.0834H29.3558C29.3558 25.9232 28.9816 26.6011 28.3229 27.1551C27.6583 27.7138 26.7073 28.1424 25.5752 28.4635C23.3121 29.1053 20.3898 29.3001 17.7779 29.3001V29.7001ZM5.8 25.0834C5.8 26.0624 6.2438 26.846 6.97546 27.4612C7.70135 28.0716 8.71332 28.5198 9.87139 28.8483C12.1886 29.5054 15.1552 29.7001 17.7779 29.7001V29.3001C15.1659 29.3001 12.2436 29.1053 9.98053 28.4635C8.84846 28.1424 7.89745 27.7138 7.23289 27.1551C6.57411 26.6011 6.2 25.9232 6.2 25.0834H5.8ZM17.7779 16.05C14.4725 16.05 11.4843 17.3696 9.32259 19.1482C7.16933 20.9199 5.8 23.1793 5.8 25.0834H6.2C6.2 23.3501 7.46723 21.1928 9.57673 19.4571C11.6778 17.7284 14.5785 16.45 17.7779 16.45V16.05ZM29.7558 25.0834C29.7558 23.1793 28.3864 20.9199 26.2332 19.1482C24.0715 17.3696 21.0832 16.05 17.7779 16.05V16.45C20.9773 16.45 23.878 17.7284 25.979 19.4571C28.0885 21.1928 29.3558 23.3501 29.3558 25.0834H29.7558Z" fill="url(#paint2_linear_69:17898)" fill-opacity="0.1" mask="url(#path-3-inside-1_69:17898)"/>
</g>
<defs>
<filter id="filter0_bi_69:17898" x="3" y="0" width="29.5557" height="32.5002" filterUnits="userSpaceOnUse" color-interpolation-filters="sRGB">
<feFlood flood-opacity="0" result="BackgroundImageFix"/>
<feGaussianBlur in="BackgroundImage" stdDeviation="1.5"/>
<feComposite in2="SourceAlpha" operator="in" result="effect1_backgroundBlur_69:17898"/>
<feBlend mode="normal" in="SourceGraphic" in2="effect1_backgroundBlur_69:17898" result="shape"/>
<feColorMatrix in="SourceAlpha" type="matrix" values="0 0 0 0 0 0 0 0 0 0 0 0 0 0 0 0 0 0 127 0" result="hardAlpha"/>
<feOffset dy="0.5"/>
<feGaussianBlur stdDeviation="1"/>
<feComposite in2="hardAlpha" operator="arithmetic" k2="-1" k3="1"/>
<feColorMatrix type="matrix" values="0 0 0 0 1 0 0 0 0 1 0 0 0 0 1 0 0 0 0.4 0"/>
<feBlend mode="normal" in2="shape" result="effect2_innerShadow_69:17898"/>
</filter>
<linearGradient id="paint0_linear_69:17898" x1="11.5557" y1="20" x2="26.7099" y2="24.1686" gradientUnits="userSpaceOnUse">
<stop stop-color="#82E8FF"/>
<stop offset="1" stop-color="#379FFF"/>
</linearGradient>
<linearGradient id="paint1_linear_69:17898" x1="6" y1="3" x2="34.1052" y2="9.34352" gradientUnits="userSpaceOnUse">
<stop stop-color="#82E8FF"/>
<stop offset="1" stop-color="#379FFF"/>
</linearGradient>
<linearGradient id="paint2_linear_69:17898" x1="6.73612" y1="4.20455" x2="29.5558" y2="4.20455" gradientUnits="userSpaceOnUse">
<stop stop-color="#7EE5FF"/>
<stop offset="1" stop-color="#41A9FF"/>
</linearGradient>
</defs>
</svg>
