<svg width="40" height="40" viewBox="0 0 40 40" fill="none" xmlns="http://www.w3.org/2000/svg">
<rect x="7" y="4" width="26" height="11" rx="1" fill="url(#paint0_linear)"/>
<g filter="url(#filter0_bi)">
<rect x="2" y="6" width="36" height="27" rx="3" fill="#F1F1F1" fill-opacity="0.1"/>
<rect x="2" y="6" width="36" height="27" rx="3" fill="url(#paint1_linear)" fill-opacity="0.2"/>
<rect x="2.1" y="6.1" width="35.8" height="26.8" rx="2.9" stroke="url(#paint2_linear)" stroke-opacity="0.1" stroke-width="0.2"/>
</g>
<g filter="url(#filter1_i)">
<path fill-rule="evenodd" clip-rule="evenodd" d="M6.22471 10.3135C6.56017 9.93706 7.14938 9.89347 7.54075 10.2162L19.3926 19.9882C19.7421 20.2764 20.2579 20.2764 20.6074 19.9882L32.4592 10.2162C32.8506 9.89347 33.4398 9.93706 33.7753 10.3135C34.1108 10.69 34.0654 11.2568 33.6741 11.5795L21.8222 21.3516C20.7736 22.2161 19.2264 22.2161 18.1778 21.3516L6.32594 11.5795C5.93457 11.2568 5.88925 10.69 6.22471 10.3135Z" fill="white" fill-opacity="0.1"/>
</g>
<defs>
<filter id="filter0_bi" x="-1" y="3" width="42" height="33" filterUnits="userSpaceOnUse" color-interpolation-filters="sRGB">
<feFlood flood-opacity="0" result="BackgroundImageFix"/>
<feGaussianBlur in="BackgroundImage" stdDeviation="1.5"/>
<feComposite in2="SourceAlpha" operator="in" result="effect1_backgroundBlur"/>
<feBlend mode="normal" in="SourceGraphic" in2="effect1_backgroundBlur" result="shape"/>
<feColorMatrix in="SourceAlpha" type="matrix" values="0 0 0 0 0 0 0 0 0 0 0 0 0 0 0 0 0 0 127 0" result="hardAlpha"/>
<feOffset dy="0.5"/>
<feGaussianBlur stdDeviation="1"/>
<feComposite in2="hardAlpha" operator="arithmetic" k2="-1" k3="1"/>
<feColorMatrix type="matrix" values="0 0 0 0 1 0 0 0 0 1 0 0 0 0 1 0 0 0 0.15 0"/>
<feBlend mode="normal" in2="shape" result="effect2_innerShadow"/>
</filter>
<filter id="filter1_i" x="6" y="10" width="28" height="12.5" filterUnits="userSpaceOnUse" color-interpolation-filters="sRGB">
<feFlood flood-opacity="0" result="BackgroundImageFix"/>
<feBlend mode="normal" in="SourceGraphic" in2="BackgroundImageFix" result="shape"/>
<feColorMatrix in="SourceAlpha" type="matrix" values="0 0 0 0 0 0 0 0 0 0 0 0 0 0 0 0 0 0 127 0" result="hardAlpha"/>
<feOffset dy="0.5"/>
<feGaussianBlur stdDeviation="0.25"/>
<feComposite in2="hardAlpha" operator="arithmetic" k2="-1" k3="1"/>
<feColorMatrix type="matrix" values="0 0 0 0 1 0 0 0 0 1 0 0 0 0 1 0 0 0 0.1 0"/>
<feBlend mode="normal" in2="shape" result="effect1_innerShadow"/>
</filter>
<linearGradient id="paint0_linear" x1="7" y1="4" x2="30.9684" y2="18.3851" gradientUnits="userSpaceOnUse">
<stop stop-color="#82E8FF"/>
<stop offset="1" stop-color="#379FFF"/>
</linearGradient>
<linearGradient id="paint1_linear" x1="2" y1="6" x2="42.499" y2="19.7113" gradientUnits="userSpaceOnUse">
<stop stop-color="#82E8FF"/>
<stop offset="1" stop-color="#379FFF"/>
</linearGradient>
<linearGradient id="paint2_linear" x1="3.125" y1="7.22727" x2="38" y2="7.22727" gradientUnits="userSpaceOnUse">
<stop stop-color="#7EE5FF"/>
<stop offset="1" stop-color="#41A9FF"/>
</linearGradient>
</defs>
</svg>
